<svg width="132" height="72" viewBox="0 0 132 72" fill="none" xmlns="http://www.w3.org/2000/svg">
<path d="M2.09647 65.28V44.6592H4.77529L12.0256 57.216H12.1421L19.3923 44.6592H22.0712V65.28H19.3923V53.04L19.5088 49.584H19.3923L12.87 60.9024H11.2976L4.77529 49.584H4.65882L4.77529 53.04V65.28H2.09647ZM27.0525 52.8672C28.4308 51.4272 30.1875 50.7072 32.3228 50.7072C34.4581 50.7072 36.2149 51.4272 37.5931 52.8672C38.9713 54.288 39.6605 56.0736 39.6605 58.224C39.6605 60.3744 38.9713 62.1696 37.5931 63.6096C36.2149 65.0304 34.4581 65.7408 32.3228 65.7408C30.1875 65.7408 28.4308 65.0304 27.0525 63.6096C25.6743 62.1696 24.9852 60.3744 24.9852 58.224C24.9852 56.0736 25.6743 54.288 27.0525 52.8672ZM29.0325 61.9392C29.9643 62.8608 31.0611 63.3216 32.3228 63.3216C33.5846 63.3216 34.6716 62.8608 35.584 61.9392C36.5158 60.9984 36.9816 59.76 36.9816 58.224C36.9816 56.688 36.5158 55.4592 35.584 54.5376C34.6716 53.5968 33.5846 53.1264 32.3228 53.1264C31.0611 53.1264 29.9643 53.5968 29.0325 54.5376C28.1202 55.4592 27.664 56.688 27.664 58.224C27.664 59.76 28.1202 60.9984 29.0325 61.9392ZM47.2511 65.7408C45.6594 65.7408 44.3394 65.3568 43.2911 64.5888C42.2623 63.8208 41.5053 62.8608 41.02 61.7088L43.4076 60.7296C44.1647 62.496 45.4556 63.3792 47.2803 63.3792C48.115 63.3792 48.7944 63.1968 49.3185 62.832C49.862 62.4672 50.1338 61.9872 50.1338 61.392C50.1338 60.4704 49.4835 59.8464 48.1829 59.52L45.3003 58.8288C44.3879 58.5984 43.5241 58.1664 42.7088 57.5328C41.8935 56.88 41.4858 56.0064 41.4858 54.912C41.4858 53.664 42.0391 52.656 43.1456 51.888C44.2714 51.1008 45.6011 50.7072 47.1347 50.7072C48.3964 50.7072 49.5223 50.9952 50.5123 51.5712C51.5023 52.128 52.2108 52.9344 52.6379 53.9904L50.3085 54.9408C49.7844 53.6928 48.6973 53.0688 47.0473 53.0688C46.2514 53.0688 45.5817 53.232 45.0382 53.5584C44.4947 53.8848 44.2229 54.3264 44.2229 54.8832C44.2229 55.6896 44.8538 56.2368 46.1156 56.5248L48.94 57.1872C50.2794 57.4944 51.2694 58.0224 51.91 58.7712C52.5506 59.52 52.8708 60.3648 52.8708 61.3056C52.8708 62.5728 52.3467 63.6288 51.2985 64.4736C50.2503 65.3184 48.9011 65.7408 47.2511 65.7408ZM57.8813 44.6592V51.168L57.7648 53.1264H57.8813C58.2695 52.4544 58.881 51.888 59.7157 51.4272C60.5504 50.9472 61.4434 50.7072 62.3946 50.7072C64.161 50.7072 65.5101 51.2448 66.4419 52.32C67.3737 53.3952 67.8395 54.8352 67.8395 56.64V65.28H65.1607V57.0432C65.1607 54.432 63.9863 53.1264 61.6375 53.1264C60.531 53.1264 59.6284 53.568 58.9296 54.4512C58.2307 55.3152 57.8813 56.3232 57.8813 57.4752V65.28H55.2025V44.6592H57.8813ZM72.2361 52.8672C73.6144 51.4272 75.3711 50.7072 77.5064 50.7072C79.6417 50.7072 81.3985 51.4272 82.7767 52.8672C84.1549 54.288 84.8441 56.0736 84.8441 58.224C84.8441 60.3744 84.1549 62.1696 82.7767 63.6096C81.3985 65.0304 79.6417 65.7408 77.5064 65.7408C75.3711 65.7408 73.6144 65.0304 72.2361 63.6096C70.8579 62.1696 70.1688 60.3744 70.1688 58.224C70.1688 56.0736 70.8579 54.288 72.2361 52.8672ZM74.2161 61.9392C75.1479 62.8608 76.2446 63.3216 77.5064 63.3216C78.7682 63.3216 79.8552 62.8608 80.7676 61.9392C81.6994 60.9984 82.1652 59.76 82.1652 58.224C82.1652 56.688 81.6994 55.4592 80.7676 54.5376C79.8552 53.5968 78.7682 53.1264 77.5064 53.1264C76.2446 53.1264 75.1479 53.5968 74.2161 54.5376C73.3038 55.4592 72.8476 56.688 72.8476 58.224C72.8476 59.76 73.3038 60.9984 74.2161 61.9392ZM89.5554 51.168V53.1264H89.6719C90.0601 52.4544 90.6716 51.888 91.5063 51.4272C92.341 50.9472 93.2339 50.7072 94.1851 50.7072C95.9516 50.7072 97.3005 51.2448 98.2323 52.32C99.164 53.3952 99.6299 54.8352 99.6299 56.64V65.28H96.9513V57.0432C96.9513 54.432 95.7769 53.1264 93.428 53.1264C92.3216 53.1264 91.4189 53.568 90.7201 54.4512C90.0213 55.3152 89.6719 56.3232 89.6719 57.4752V65.28H86.993V51.168H89.5554ZM105.453 44.6592V57.36L111.626 51.168H115.062V51.2832L109.501 56.784L115.324 65.1648V65.28H112.092L107.608 58.6272L105.453 60.7584V65.28H102.775V44.6592H105.453ZM129.371 65.28H126.808V63.3216H126.692C126.284 63.9936 125.663 64.5696 124.828 65.0496C123.994 65.5104 123.11 65.7408 122.179 65.7408C120.393 65.7408 119.034 65.2032 118.102 64.128C117.19 63.0528 116.734 61.6128 116.734 59.808V51.168H119.412V59.376C119.412 62.0064 120.587 63.3216 122.936 63.3216C124.042 63.3216 124.945 62.88 125.644 61.9968C126.342 61.1136 126.692 60.096 126.692 58.944V51.168H129.371V65.28Z" fill="#1E1E1E"/>
<path d="M16.9853 33.6C26.366 33.6 33.9706 26.0784 33.9706 16.8C33.9706 7.52162 26.366 0 16.9853 0C7.60458 0 0 7.52162 0 16.8C0 26.0784 7.60458 33.6 16.9853 33.6Z" fill="#1E1E1E"/>
<path d="M48.5294 26.88C53.8898 26.88 58.2353 22.367 58.2353 16.8C58.2353 11.233 53.8898 6.72 48.5294 6.72C43.169 6.72 38.8235 11.233 38.8235 16.8C38.8235 22.367 43.169 26.88 48.5294 26.88Z" fill="#1E1E1E"/>
<path d="M71.3382 24C75.3585 24 78.6176 20.7764 78.6176 16.8C78.6176 12.8235 75.3585 9.6 71.3382 9.6C67.3179 9.6 64.0588 12.8235 64.0588 16.8C64.0588 20.7764 67.3179 24 71.3382 24Z" fill="#1E1E1E"/>
</svg>
